<svg width="150" height="32" viewBox="0 0 150 32" fill="none" xmlns="http://www.w3.org/2000/svg">
<mask id="mask0_1634_1169" style="mask-type:alpha" maskUnits="userSpaceOnUse" x="8" y="4" width="134" height="22">
<rect width="133" height="22" transform="matrix(1 0 0 -1 8.14941 26)" fill="#8C8C8C"/>
</mask>
<g mask="url(#mask0_1634_1169)">
<circle cx="74.1494" cy="169.5" r="159.5" stroke="black" stroke-opacity="0.08" stroke-miterlimit="12.8023" stroke-dasharray="3 3"/>
</g>
<g clip-path="url(#clip0_1634_1169)">
<path d="M78.9175 19.4H77.0175L72.7539 11.399H67.85C67.85 11.399 65 11.399 65 10C65 8.60004 67.85 8.60004 67.85 8.60004H72.7539L77.0175 0.600037H78.9175L76.5539 8.60004H79.9616L82.1 6.59904H84L82.4791 9.99904L84 13.4H82.1L79.9616 11.399H76.5539L78.9175 19.4Z" fill="#DF2018"/>
</g>
<ellipse cx="7.80896" cy="24" rx="7.80896" ry="8" fill="black" fill-opacity="0.04"/>
<ellipse cx="7.80894" cy="24" rx="4.8806" ry="5" fill="black" fill-opacity="0.04"/>
<ellipse cx="1.95224" cy="2" rx="1.95224" ry="2" transform="matrix(-1 0 0 1 9.76117 22)" fill="#5B9CEC"/>
<ellipse cx="141.537" cy="24" rx="7.80896" ry="8" fill="black" fill-opacity="0.04"/>
<ellipse cx="141.537" cy="24" rx="4.8806" ry="5" fill="black" fill-opacity="0.04"/>
<ellipse cx="1.95224" cy="2" rx="1.95224" ry="2" transform="matrix(-1 0 0 1 143.49 22)" fill="#5B9CEC"/>
<defs>
<clipPath id="clip0_1634_1169">
<rect width="19" height="20" fill="white" transform="matrix(-1 0 0 1 84 0)"/>
</clipPath>
</defs>
</svg>
