<svg width="25" height="24" viewBox="0 0 25 24" fill="none" xmlns="http://www.w3.org/2000/svg">
<path fill-rule="evenodd" clip-rule="evenodd" d="M20.2133 5.02429C20.5103 4.95729 20.8203 5.02929 21.0583 5.21829C21.2953 5.40929 21.4333 5.69629 21.4333 6.00029V18.2023C21.4333 18.6703 21.1093 19.0753 20.6533 19.1773L12.6533 20.9753C12.5793 20.9923 12.5063 21.0003 12.4333 21.0003C12.3603 21.0003 12.2873 20.9923 12.2133 20.9753L4.21333 19.1773C3.75733 19.0753 3.43333 18.6703 3.43333 18.2023V6.00029C3.43333 5.69629 3.57133 5.40929 3.80833 5.21829C4.04633 5.02929 4.35533 4.95629 4.65333 5.02429L12.4333 6.77229L20.2133 5.02429ZM5.43333 7.25029L11.4333 8.59729V18.7503L5.43333 17.4023V7.25029ZM19.4333 17.4023L13.4333 18.7503V8.59729L19.4333 7.25029V17.4023Z" fill="#e30d05"/>
</svg>
