<svg width="18" height="19" viewBox="0 0 18 19" fill="none" xmlns="http://www.w3.org/2000/svg">
<path fill-rule="evenodd" clip-rule="evenodd" d="M17.2279 16.6368L13.0486 12.4575C14.1506 11.1819 14.818 9.51401 14.818 7.68882C14.818 3.67909 11.5968 0.428574 7.62329 0.428574C3.64977 0.428574 0.428589 3.67909 0.428589 7.68882C0.428589 11.6985 3.64977 14.9491 7.62329 14.9491C9.12502 14.9491 10.5193 14.4848 11.6728 13.6907L15.9234 17.9413C16.2836 18.3015 16.8676 18.3015 17.2279 17.9413C17.5881 17.5811 17.5881 16.997 17.2279 16.6368ZM12.9732 7.68881C12.9732 10.6704 10.578 13.0875 7.62329 13.0875C4.66862 13.0875 2.27338 10.6704 2.27338 7.68881C2.27338 4.70722 4.66862 2.29017 7.62329 2.29017C10.578 2.29017 12.9732 4.70722 12.9732 7.68881Z" fill="black"/>
<path d="M13.0486 12.4575L12.9351 12.3594L12.8439 12.465L12.9425 12.5636L13.0486 12.4575ZM17.2279 16.6368L17.1218 16.7429L17.2279 16.6368ZM11.6728 13.6907L11.7789 13.5846L11.6906 13.4963L11.5878 13.5671L11.6728 13.6907ZM17.2279 17.9413L17.1218 17.8352L17.2279 17.9413ZM12.9425 12.5636L17.1218 16.7429L17.3339 16.5307L13.1546 12.3514L12.9425 12.5636ZM14.668 7.68882C14.668 9.4768 14.0143 11.1102 12.9351 12.3594L13.1621 12.5556C14.2868 11.2536 14.968 9.55122 14.968 7.68882H14.668ZM7.62329 0.578574C11.5127 0.578574 14.668 3.76065 14.668 7.68882H14.968C14.968 3.59754 11.6809 0.278574 7.62329 0.278574V0.578574ZM0.578589 7.68882C0.578589 3.76065 3.73389 0.578574 7.62329 0.578574V0.278574C3.56565 0.278574 0.278589 3.59754 0.278589 7.68882H0.578589ZM7.62329 14.7991C3.73389 14.7991 0.578589 11.617 0.578589 7.68882H0.278589C0.278589 11.7801 3.56565 15.0991 7.62329 15.0991V14.7991ZM11.5878 13.5671C10.4584 14.3446 9.0936 14.7991 7.62329 14.7991V15.0991C9.15644 15.0991 10.5802 14.625 11.7579 13.8143L11.5878 13.5671ZM16.0295 17.8352L11.7789 13.5846L11.5667 13.7968L15.8173 18.0473L16.0295 17.8352ZM17.1218 17.8352C16.8202 18.1368 16.3311 18.1368 16.0295 17.8352L15.8173 18.0473C16.2361 18.4661 16.9151 18.4661 17.3339 18.0473L17.1218 17.8352ZM17.1218 16.7429C17.4234 17.0445 17.4234 17.5336 17.1218 17.8352L17.3339 18.0473C17.7527 17.6285 17.7527 16.9495 17.3339 16.5307L17.1218 16.7429ZM7.62329 13.2374C10.6621 13.2374 13.1232 10.752 13.1232 7.68881H12.8232C12.8232 10.5888 10.4938 12.9375 7.62329 12.9375V13.2374ZM2.12338 7.68881C2.12338 10.752 4.5845 13.2374 7.62329 13.2374V12.9375C4.75274 12.9375 2.42338 10.5888 2.42338 7.68881H2.12338ZM7.62329 2.14017C4.5845 2.14017 2.12338 4.62566 2.12338 7.68881H2.42338C2.42338 4.78878 4.75274 2.44017 7.62329 2.44017V2.14017ZM13.1232 7.68881C13.1232 4.62566 10.6621 2.14017 7.62329 2.14017V2.44017C10.4938 2.44017 12.8232 4.78878 12.8232 7.68881H13.1232Z" fill="black"/>
</svg>
