<svg width="27" height="26" viewBox="0 0 27 26" fill="none" xmlns="http://www.w3.org/2000/svg">
<path fill-rule="evenodd" clip-rule="evenodd" d="M13.0183 22.7516H13.0259C15.2012 22.7516 17.2444 21.8904 18.7816 20.3239C21.9396 17.1053 21.9341 11.8696 18.7708 8.65855L13.7983 3.5788C13.3856 3.15413 12.6966 3.15413 12.2665 3.56255C12.0346 3.78355 11.9122 4.09663 11.9328 4.41622C11.9415 4.5668 11.9415 4.71738 11.9415 4.87663C11.9415 7.64672 11.246 9.28363 10.8614 9.6888C10.6978 9.50897 10.401 9.03555 10.1518 8.07247C10.0543 7.69547 9.76181 7.39972 9.3859 7.29788C9.00781 7.1993 8.60806 7.30547 8.3329 7.58063L7.26798 8.65747C4.11656 11.8696 4.1209 17.1053 7.27773 20.3228C8.80631 21.8882 10.8451 22.7495 13.0183 22.7516ZM8.82581 18.8072C6.53131 16.4683 6.48473 12.6918 8.68606 10.3096C9.41081 11.6735 10.3078 11.9183 10.8581 11.9183C12.6543 11.9183 13.6629 9.5588 13.9901 6.86997L17.2249 10.1752C19.566 12.5531 19.5703 16.4261 17.2346 18.8072C16.1091 19.9534 14.6151 20.585 13.0259 20.585H13.0205C11.4345 20.5839 9.94598 19.9523 8.82581 18.8072Z" fill="#B4B4B4"/>
<mask id="mask0_601_1325" style="mask-type:luminance" maskUnits="userSpaceOnUse" x="4" y="3" width="18" height="20">
<path fill-rule="evenodd" clip-rule="evenodd" d="M13.0183 22.7516H13.0259C15.2012 22.7516 17.2444 21.8904 18.7816 20.3239C21.9396 17.1053 21.9341 11.8696 18.7708 8.65855L13.7983 3.5788C13.3856 3.15413 12.6966 3.15413 12.2665 3.56255C12.0346 3.78355 11.9122 4.09663 11.9328 4.41622C11.9415 4.5668 11.9415 4.71738 11.9415 4.87663C11.9415 7.64672 11.246 9.28363 10.8614 9.6888C10.6978 9.50897 10.401 9.03555 10.1518 8.07247C10.0543 7.69547 9.76181 7.39972 9.3859 7.29788C9.00781 7.1993 8.60806 7.30547 8.3329 7.58063L7.26798 8.65747C4.11656 11.8696 4.1209 17.1053 7.27773 20.3228C8.80631 21.8882 10.8451 22.7495 13.0183 22.7516ZM8.82581 18.8072C6.53131 16.4683 6.48473 12.6918 8.68606 10.3096C9.41081 11.6735 10.3078 11.9183 10.8581 11.9183C12.6543 11.9183 13.6629 9.5588 13.9901 6.86997L17.2249 10.1752C19.566 12.5531 19.5703 16.4261 17.2346 18.8072C16.1091 19.9534 14.6151 20.585 13.0259 20.585H13.0205C11.4345 20.5839 9.94598 19.9523 8.82581 18.8072Z" fill="white"/>
</mask>
<g mask="url(#mask0_601_1325)">
</g>
</svg>
