<svg width="32.000000" height="32.000000" viewBox="0 0 32 32" fill="none" xmlns="http://www.w3.org/2000/svg" xmlns:xlink="http://www.w3.org/1999/xlink">
	<desc>
			Created with Pixso.
	</desc>
	<defs>
		<clipPath id="clip888_3419">
			<rect id="ic:baseline-people" width="16.000000" height="16.000000" transform="translate(8.000000 8.000000)" fill="white" fill-opacity="0"/>
		</clipPath>
		<clipPath id="clip888_3417">
			<rect id="_Glyphs / Tab Bar / People" width="32.000000" height="32.000000" fill="white" fill-opacity="0"/>
		</clipPath>
	</defs>
	<g clip-path="url(#clip888_3417)">
		<circle id="Ellipse 591" cx="16.000000" cy="16.000000" r="16.000000" fill="#EBF3FD" fill-opacity="1.000000"/>
		<rect id="ic:baseline-people" width="16.000000" height="16.000000" transform="translate(8.000000 8.000000)" fill="#FFFFFF" fill-opacity="0"/>
		<g clip-path="url(#clip888_3419)">
			<path id="Vector" d="M18.66 15.33C19.77 15.33 20.66 14.44 20.66 13.33C20.66 12.22 19.77 11.33 18.66 11.33C17.56 11.33 16.66 12.22 16.66 13.33C16.66 14.44 17.56 15.33 18.66 15.33ZM13.33 15.33C14.44 15.33 15.32 14.44 15.32 13.33C15.32 12.22 14.44 11.33 13.33 11.33C12.22 11.33 11.33 12.22 11.33 13.33C11.33 14.44 12.22 15.33 13.33 15.33ZM13.33 16.66C11.78 16.66 8.66 17.44 8.66 19L8.66 20.66L18 20.66L18 19C18 17.44 14.88 16.66 13.33 16.66ZM18.66 16.66C18.47 16.66 18.25 16.68 18.02 16.7C18.79 17.26 19.33 18.01 19.33 19L19.33 20.66L23.33 20.66L23.33 19C23.33 17.44 20.21 16.66 18.66 16.66Z" fill="#5B9CEC" fill-opacity="1.000000" fill-rule="nonzero"/>
		</g>
	</g>
</svg>
