<svg width="32.000000" height="32.000000" viewBox="0 0 32 32" fill="none" xmlns="http://www.w3.org/2000/svg" xmlns:xlink="http://www.w3.org/1999/xlink">
	<desc>
			Created with Pixso.
	</desc>
	<defs>
		<clipPath id="clip888_3410">
			<rect id="uiw:date" width="16.000000" height="16.000000" transform="translate(8.000000 8.000000)" fill="white" fill-opacity="0"/>
		</clipPath>
		<clipPath id="clip888_3408">
			<rect id="_Glyphs / Tab Bar / Departure" width="32.000000" height="32.000000" fill="white" fill-opacity="0"/>
		</clipPath>
	</defs>
	<g clip-path="url(#clip888_3408)">
		<circle id="Ellipse 590" cx="16.000000" cy="16.000000" r="16.000000" fill="#EBF3FD" fill-opacity="1.000000"/>
		<rect id="uiw:date" width="16.000000" height="16.000000" transform="translate(8.000000 8.000000)" fill="#FFFFFF" fill-opacity="0"/>
		<g clip-path="url(#clip888_3410)">
			<path id="Vector" d="M12.53 8C12.68 8 12.82 8.05 12.93 8.16C13.03 8.26 13.09 8.41 13.09 8.56L13.09 9.6L19.11 9.6L19.11 8.56C19.11 8.41 19.17 8.27 19.27 8.17C19.38 8.06 19.52 8 19.67 8C19.82 8 19.96 8.06 20.06 8.17C20.17 8.27 20.23 8.41 20.23 8.56L20.23 9.6L22.39 9.6C22.82 9.6 23.23 9.77 23.53 10.07C23.83 10.37 23.99 10.78 24 11.2L24 22.4C23.99 22.82 23.83 23.23 23.53 23.53C23.23 23.83 22.82 24 22.39 24L9.6 24C9.17 24 8.76 23.83 8.46 23.53C8.16 23.23 8 22.82 8 22.4L8 11.2C8 10.78 8.16 10.37 8.46 10.07C8.76 9.77 9.17 9.6 9.6 9.6L11.97 9.6L11.97 8.55C11.97 8.41 12.03 8.26 12.14 8.16C12.24 8.05 12.39 8 12.53 8ZM9.12 14.19L9.12 22.4C9.12 22.46 9.13 22.52 9.15 22.58C9.18 22.64 9.21 22.69 9.26 22.74C9.3 22.78 9.35 22.82 9.41 22.84C9.47 22.86 9.53 22.88 9.6 22.88L22.39 22.88C22.46 22.88 22.52 22.86 22.58 22.84C22.64 22.82 22.69 22.78 22.73 22.74C22.78 22.69 22.81 22.64 22.84 22.58C22.86 22.52 22.87 22.46 22.87 22.4L22.87 14.2L9.12 14.19ZM20 19.69L20 21.02L18.66 21.02L18.66 19.69L20 19.69ZM11.97 10.72L9.6 10.72C9.53 10.72 9.47 10.73 9.41 10.76C9.35 10.78 9.3 10.82 9.26 10.86C9.21 10.91 9.18 10.96 9.15 11.02C9.13 11.08 9.12 11.14 9.12 11.2L9.12 13.07L22.87 13.08L22.87 11.2C22.87 11.14 22.86 11.08 22.84 11.02C22.81 10.96 22.78 10.91 22.73 10.86C22.69 10.82 22.64 10.78 22.58 10.76C22.52 10.73 22.46 10.72 22.39 10.72L20.23 10.72L20.23 11.46C20.23 11.61 20.17 11.76 20.06 11.86C19.96 11.97 19.82 12.02 19.67 12.02C19.52 12.02 19.38 11.97 19.27 11.86C19.17 11.76 19.11 11.61 19.11 11.46L19.11 10.72L13.09 10.72L13.09 11.46C13.09 11.61 13.03 11.75 12.93 11.85C12.82 11.96 12.68 12.02 12.53 12.02C12.38 12.02 12.24 11.96 12.14 11.85C12.03 11.75 11.97 11.61 11.97 11.46L11.97 10.72Z" fill="#5B9CEC" fill-opacity="1.000000" fill-rule="nonzero"/>
		</g>
	</g>
</svg>
