<svg width="17.000000" height="17.000000" viewBox="0 0 17 17" fill="none" xmlns="http://www.w3.org/2000/svg" xmlns:xlink="http://www.w3.org/1999/xlink">
	<desc>
			Created with Pixso.
	</desc>
	<defs/>
	<path id="path" d="M15.37 9.27C15.2 10.83 14.5 12.28 13.39 13.39C12.28 14.5 10.83 15.2 9.27 15.37L9.27 16.22C9.27 16.32 9.25 16.42 9.21 16.52C9.17 16.61 9.11 16.7 9.04 16.77C8.97 16.84 8.88 16.9 8.79 16.94C8.7 16.98 8.6 17 8.5 17C8.39 17 8.29 16.98 8.2 16.94C8.11 16.9 8.02 16.84 7.95 16.77C7.88 16.7 7.82 16.61 7.78 16.52C7.74 16.42 7.72 16.32 7.72 16.22L7.72 15.37C6.15 15.23 4.68 14.54 3.57 13.42C2.45 12.31 1.76 10.84 1.62 9.27L0.77 9.27C0.67 9.27 0.57 9.25 0.47 9.21C0.38 9.17 0.29 9.11 0.22 9.04C0.15 8.97 0.09 8.88 0.05 8.79C0.02 8.7 0 8.6 0 8.5C0 8.39 0.02 8.29 0.05 8.2C0.09 8.11 0.15 8.02 0.22 7.95C0.29 7.88 0.38 7.82 0.47 7.78C0.57 7.74 0.67 7.72 0.77 7.72L1.62 7.72C1.76 6.15 2.45 4.68 3.57 3.57C4.68 2.45 6.15 1.76 7.72 1.62L7.72 0.77C7.72 0.67 7.74 0.57 7.78 0.47C7.82 0.38 7.88 0.29 7.95 0.22C8.02 0.15 8.11 0.09 8.2 0.05C8.29 0.02 8.39 0 8.5 0C8.6 0 8.7 0.02 8.79 0.05C8.88 0.09 8.97 0.15 9.04 0.22C9.11 0.29 9.17 0.38 9.21 0.47C9.25 0.57 9.27 0.67 9.27 0.77L9.27 1.62C10.83 1.79 12.28 2.49 13.39 3.6C14.5 4.71 15.2 6.16 15.37 7.72L16.22 7.72C16.32 7.72 16.42 7.74 16.52 7.78C16.61 7.82 16.7 7.88 16.77 7.95C16.84 8.02 16.9 8.11 16.94 8.2C16.98 8.29 17 8.39 17 8.5C17 8.6 16.98 8.7 16.94 8.79C16.9 8.88 16.84 8.97 16.77 9.04C16.7 9.11 16.61 9.17 16.52 9.21C16.42 9.25 16.32 9.27 16.22 9.27L15.37 9.27ZM8.5 13.9C9.56 13.9 10.61 13.59 11.5 12.99C12.39 12.4 13.08 11.55 13.49 10.56C13.9 9.58 14.01 8.49 13.8 7.44C13.59 6.39 13.08 5.43 12.32 4.67C11.56 3.91 10.6 3.4 9.55 3.19C8.5 2.98 7.41 3.09 6.43 3.5C5.44 3.91 4.59 4.6 4 5.49C3.4 6.38 3.09 7.43 3.09 8.5C3.08 9.21 3.22 9.91 3.49 10.57C3.76 11.23 4.16 11.83 4.66 12.33C5.16 12.83 5.76 13.23 6.42 13.5C7.08 13.77 7.78 13.91 8.5 13.9ZM8.5 11.59C7.88 11.59 7.29 11.4 6.78 11.06C6.27 10.72 5.87 10.24 5.64 9.68C5.41 9.11 5.34 8.49 5.46 7.89C5.58 7.29 5.88 6.74 6.31 6.31C6.74 5.88 7.29 5.58 7.89 5.46C8.49 5.34 9.11 5.4 9.68 5.64C10.24 5.87 10.73 6.27 11.07 6.78C11.41 7.29 11.59 7.88 11.59 8.5C11.58 9.31 11.26 10.1 10.68 10.68C10.1 11.26 9.31 11.58 8.5 11.59L8.5 11.59ZM8.5 10.04C8.8 10.04 9.1 9.95 9.35 9.78C9.61 9.61 9.81 9.37 9.92 9.09C10.04 8.8 10.07 8.49 10.01 8.19C9.95 7.89 9.8 7.62 9.59 7.4C9.37 7.19 9.1 7.04 8.8 6.98C8.5 6.92 8.19 6.95 7.9 7.07C7.62 7.18 7.38 7.38 7.21 7.64C7.04 7.89 6.95 8.19 6.95 8.5C6.95 8.9 7.11 9.3 7.4 9.59C7.69 9.88 8.09 10.04 8.5 10.04Z" fill="#5B9CEC" fill-opacity="1.000000" fill-rule="nonzero"/>
</svg>
