<svg width="16.000000" height="16.000000" viewBox="0 0 16 16" fill="none" xmlns="http://www.w3.org/2000/svg" xmlns:xlink="http://www.w3.org/1999/xlink">
	<desc>
			Created with Pixso.
	</desc>
	<defs/>
	<path id="Vector" d="M15.91 14.48L14.76 11.2L13.49 11.2L14.19 14.4L1.8 14.4L2.5 11.2L1.23 11.2L0.08 14.48C-0.22 15.31 0.3 16 1.23 16L14.76 16C15.69 16 16.21 15.31 15.91 14.48ZM12.22 4C12.22 2.93 11.78 1.92 10.98 1.17C10.19 0.42 9.12 0 8 0C6.87 0 5.8 0.42 5.01 1.17C4.21 1.92 3.77 2.93 3.77 4C3.77 7.81 8 12 8 12C8 12 12.22 7.81 12.22 4ZM5.71 4.04C5.71 3.76 5.77 3.48 5.89 3.22C6 2.95 6.17 2.72 6.38 2.52C6.59 2.32 6.85 2.16 7.12 2.05C7.4 1.94 7.7 1.88 8 1.88C8.6 1.88 9.18 2.11 9.61 2.52C10.04 2.92 10.28 3.47 10.28 4.04C10.28 4.62 10.04 5.17 9.61 5.57C9.18 5.98 8.6 6.2 8 6.2C7.39 6.2 6.81 5.98 6.38 5.57C5.95 5.17 5.71 4.62 5.71 4.04Z" fill="#323232" fill-opacity="1.000000" fill-rule="nonzero"/>
</svg>
