<svg width="32.000000" height="32.000000" viewBox="0 0 32 32" fill="none" xmlns="http://www.w3.org/2000/svg" xmlns:xlink="http://www.w3.org/1999/xlink">
	<desc>
			Created with Pixso.
	</desc>
	<defs>
		<clipPath id="clip888_3400">
			<rect id="_Glyphs / Tab Bar / Location" width="32.000000" height="32.000000" fill="white" fill-opacity="0"/>
		</clipPath>
	</defs>
	<g clip-path="url(#clip888_3400)">
		<rect id="Base" rx="16.000000" width="32.000000" height="32.000000" fill="#EBF3FD" fill-opacity="1.000000"/>
		<path id="Vector" d="M23.91 22.48L22.76 19.2L21.49 19.2L22.19 22.4L9.8 22.4L10.5 19.2L9.23 19.2L8.08 22.48C7.78 23.31 8.3 24 9.23 24L22.76 24C23.69 24 24.21 23.31 23.91 22.48ZM20.22 12C20.22 10.93 19.78 9.92 18.98 9.17C18.19 8.42 17.12 8 16 8C14.87 8 13.8 8.42 13.01 9.17C12.21 9.92 11.77 10.93 11.77 12C11.77 15.81 16 20 16 20C16 20 20.22 15.81 20.22 12ZM13.71 12.04C13.71 11.76 13.77 11.48 13.89 11.22C14 10.95 14.17 10.72 14.38 10.52C14.59 10.32 14.85 10.16 15.12 10.05C15.4 9.94 15.7 9.88 16 9.88C16.6 9.88 17.18 10.11 17.61 10.52C18.04 10.92 18.28 11.47 18.28 12.04C18.28 12.62 18.04 13.17 17.61 13.57C17.18 13.98 16.6 14.2 16 14.2C15.39 14.2 14.81 13.98 14.38 13.57C13.95 13.17 13.71 12.62 13.71 12.04Z" fill="#5B9CEC" fill-opacity="1.000000" fill-rule="nonzero"/>
	</g>
</svg>
