<svg width="347" height="268" viewBox="0 0 347 268" fill="none" xmlns="http://www.w3.org/2000/svg">
<g filter="url(#filter0_d_1386_5523)">
<path d="M146.388 217.442C145.106 215.962 127.235 203.477 125.893 202.539L128.942 202.016C128.942 202.016 145.283 215.903 146.388 217.442Z" fill="#E3EAED"/>
<path opacity="0.5" d="M146.388 217.442C145.106 215.962 127.235 203.477 125.893 202.539L128.942 202.016C128.942 202.016 145.283 215.903 146.388 217.442Z" fill="white"/>
<path d="M146.447 217.552C146.447 217.552 146.447 217.552 146.447 217.611C146.309 217.927 145.086 218.203 143.714 218.391H143.665C142.401 218.625 141.108 218.651 139.836 218.47C139.451 218.203 126.554 211.749 118.659 207.801L118.344 207.653H118.284L117.169 207.09L113.913 205.472L112.65 204.84L125.922 202.57C126.682 203.093 132.711 207.307 138.05 211.147L138.602 211.541C139.096 211.897 139.589 212.252 140.063 212.588C142.265 214.1 144.386 215.728 146.418 217.463C146.418 217.463 146.418 217.512 146.418 217.532L146.447 217.552Z" fill="#E3EAED"/>
<g opacity="0.1">
<path opacity="0.1" d="M146.447 217.548C146.447 217.548 146.447 217.548 146.447 217.607C146.309 217.923 145.086 218.2 143.714 218.387H143.665C142.401 218.621 141.108 218.648 139.836 218.466C139.441 218.2 126.208 211.557 118.343 207.61C119.636 208.241 136.609 216.403 140.053 212.544C142.255 214.057 144.376 215.685 146.408 217.42C146.408 217.42 146.408 217.469 146.408 217.489L146.447 217.548Z" fill="black"/>
</g>
<path d="M321.278 232.12C321.278 233.896 311.499 234.468 310.167 234.093C308.834 233.718 202.261 191.773 202.261 191.773L241.426 176.269L242.561 177.048L243.055 177.394C250.278 182.388 271.839 197.34 290.668 210.496L291.783 211.275L293.263 212.262C306.318 221.441 317.637 229.405 321.278 232.12Z" fill="#E3EAED"/>
<path d="M321.278 232.113C311.746 224.998 249.568 181.908 241.427 176.272L246.361 174.298C246.361 174.298 318.791 229.399 320.982 231.59C321.144 231.72 321.25 231.907 321.278 232.113Z" fill="#E3EAED"/>
<path opacity="0.5" d="M321.278 232.113C311.746 224.998 249.568 181.908 241.427 176.272L246.361 174.298C246.361 174.298 318.791 229.399 320.982 231.59C321.144 231.72 321.25 231.907 321.278 232.113Z" fill="white"/>
<g opacity="0.5">
<path opacity="0.1" d="M321.278 232.114C321.278 233.891 311.499 234.463 310.167 234.088C308.834 233.713 202.261 191.768 202.261 191.768L241.426 176.263C241.426 176.263 231.746 187.337 254.728 204.381C270.389 215.998 287.066 218.406 293.213 212.277C306.318 221.436 317.637 229.4 321.278 232.114Z" fill="black"/>
</g>
<path d="M232.516 205.527C229.486 206.998 226.2 208.142 225.954 205.103C225.865 203.859 226.832 202.527 231.697 200.168C232.832 199.615 235.644 198.391 236.443 200.918C237.243 203.445 233.651 204.964 232.516 205.527Z" fill="#E3EAED"/>
<path opacity="0.1" d="M232.516 205.527C229.486 206.998 226.2 208.142 225.954 205.103C225.865 203.859 226.832 202.527 231.697 200.168C232.832 199.615 235.644 198.391 236.443 200.918C237.243 203.445 233.651 204.964 232.516 205.527Z" fill="black"/>
<path d="M257.215 215.631C254.186 217.102 250.89 218.257 250.653 215.217C250.554 213.963 251.522 212.631 256.396 210.282C257.531 209.729 260.343 208.515 261.143 211.042C261.942 213.569 258.35 215.079 257.215 215.631Z" fill="#E3EAED"/>
<path opacity="0.1" d="M257.215 215.631C254.186 217.102 250.89 218.257 250.653 215.217C250.554 213.963 251.522 212.631 256.396 210.282C257.531 209.729 260.343 208.515 261.143 211.042C261.942 213.569 258.35 215.079 257.215 215.631Z" fill="black"/>
<path d="M281.905 225.746C278.885 227.216 275.589 228.371 275.353 225.331C275.254 224.087 276.221 222.755 281.086 220.396C282.231 219.853 285.033 218.63 285.842 221.156C286.651 223.683 283.05 225.193 281.905 225.746Z" fill="#E3EAED"/>
<path opacity="0.1" d="M281.905 225.746C278.885 227.216 275.589 228.371 275.353 225.331C275.254 224.087 276.221 222.755 281.086 220.396C282.231 219.853 285.033 218.63 285.842 221.156C286.651 223.683 283.05 225.193 281.905 225.746Z" fill="black"/>
<path d="M273.813 199.219C270.853 204.519 264.083 206.423 259.811 208.101C248.453 212.641 240.223 215.187 236.128 204.874C235.642 203.682 235.336 202.425 235.22 201.143C234.549 193.366 242.611 189.478 246.696 187.326C251.63 184.721 255.123 183.043 257.728 181.947C261.972 180.151 263.866 179.973 265.81 179.865C268.11 179.786 273.29 180.368 274.997 189.882C275.735 193.036 275.315 196.349 273.813 199.219Z" fill="#E3EAED"/>
<path d="M273.971 191.79C273.971 197.584 270.349 202.281 265.879 202.281C261.409 202.281 257.787 197.584 257.787 191.79C257.787 185.997 261.409 181.299 265.879 181.299C270.349 181.299 273.971 185.997 273.971 191.79Z" fill="#455A64"/>
<path d="M273.024 191.788C273.024 196.91 269.827 201.056 265.879 201.056C261.932 201.056 258.725 196.91 258.725 191.788C258.725 186.666 261.932 182.511 265.879 182.511C269.827 182.511 273.024 186.666 273.024 191.788Z" fill="#F0F0F0"/>
<path d="M104.38 189.006L102.505 189.697L98.2818 191.226L83.6773 184.92C69.5464 178.85 52.7708 171.705 49.5637 170.599L49.9683 170.718L50.3433 170.836L50.8367 170.994L51.113 171.093L52.2281 171.448L53.3728 171.823L56.5799 172.879L57.6851 173.244L58.6719 173.59L59.2343 173.777L60.981 174.36L62.1355 174.745L77.1644 179.798L78.5854 180.281L84.1805 182.166L93.8314 185.433L95.1932 185.897C96.7523 186.42 98.1535 186.884 99.3969 187.318L100.473 187.683L100.966 187.851L101.222 187.93C103.236 188.631 104.38 189.006 104.38 189.006Z" fill="#E3EAED"/>
<path opacity="0.5" d="M104.38 189.006L102.505 189.697L98.2818 191.226L83.6773 184.92C69.5464 178.85 52.7708 171.705 49.5637 170.599L49.9683 170.718L50.3433 170.836L50.8367 170.994L51.113 171.093L52.2281 171.448L53.3728 171.823L56.5799 172.879L57.6851 173.244L58.6719 173.59L59.2343 173.777L60.981 174.36L62.1355 174.745L77.1644 179.798L78.5854 180.281L84.1805 182.166L93.8314 185.433L95.1932 185.897C96.7523 186.42 98.1535 186.884 99.3969 187.318L100.473 187.683L100.966 187.851L101.222 187.93C103.236 188.631 104.38 189.006 104.38 189.006Z" fill="white"/>
<g opacity="0.1">
<path opacity="0.1" d="M98.2819 191.226L86.9732 195.352C86.9732 195.352 61.7113 183.627 46.6429 176.274C49.1395 177.34 74.7074 188.601 81.0031 187.032C81.5885 186.928 82.1391 186.681 82.6057 186.312C83.0724 185.944 83.4405 185.465 83.6773 184.92L98.2819 191.226Z" fill="black"/>
</g>
<path d="M127.383 175.101L99.94 188.306C99.94 188.306 100.216 164.768 100.433 147.842C100.433 147.259 100.433 146.687 100.433 146.124C100.433 145.562 100.433 145.197 100.433 144.743C100.502 138.949 100.572 134.281 100.601 132.159C100.7 125.349 101.43 123.968 103.236 125.073C105.042 126.178 113.054 133.156 115.462 136.265C117.436 138.811 121.817 154.267 124.669 164.886C124.669 164.985 124.669 165.064 124.728 165.153C124.896 165.774 125.064 166.376 125.212 166.949C126.524 171.726 127.383 175.101 127.383 175.101Z" fill="#E3EAED"/>
<g opacity="0.1">
<path opacity="0.1" d="M127.383 175.099L99.9398 188.304C99.9398 188.304 100.216 164.765 100.433 147.839C104.469 156.86 112.452 169.177 125.251 166.947C126.524 171.723 127.383 175.099 127.383 175.099Z" fill="black"/>
</g>
<path d="M80.7666 202.695C77.9444 195.628 89.934 189.213 103.552 183.104C117.17 176.995 251.393 117.788 270.853 112.508C290.313 107.228 312.969 114.482 316.798 125.565C322.541 142.244 298.335 156.22 211.389 192.273C199.991 197 149.033 209.238 120.377 209.327C89.7267 209.426 82.158 206.129 80.7666 202.695Z" fill="#E3EAED"/>
<path opacity="0.5" d="M80.7666 202.695C77.9444 195.628 89.934 189.213 103.552 183.104C117.17 176.995 251.393 117.788 270.853 112.508C290.313 107.228 312.969 114.482 316.798 125.565C322.541 142.244 298.335 156.22 211.389 192.273C199.991 197 149.033 209.238 120.377 209.327C89.7267 209.426 82.158 206.129 80.7666 202.695Z" fill="white"/>
<path opacity="0.1" d="M211.379 192.312C199.981 197.04 149.023 209.268 120.366 209.367C89.7265 209.465 82.1578 206.208 80.7664 202.734C79.2862 199.043 81.8617 195.52 86.6082 192.125C86.5766 192.841 86.7012 193.554 86.9733 194.217C88.2463 197.375 95.1144 200.326 122.912 200.237C148.914 200.149 186.314 179.087 196.646 174.804C275.54 142.047 306.377 139.323 301.137 124.213C298.868 117.621 289.296 112.538 278.017 111.146C295.503 109.054 313.423 115.815 316.788 125.585C322.531 142.245 298.325 156.22 211.379 192.312Z" fill="black"/>
<path d="M123.317 179.407L126.396 178.065V182.605L123.317 183.937V179.407Z" fill="#455A64"/>
<path d="M128.942 176.966L132.238 175.534V180.074L128.942 181.496V176.966Z" fill="#455A64"/>
<path d="M134.774 174.441L138.069 173.01V177.55L134.774 178.971V174.441Z" fill="#455A64"/>
<path d="M140.616 171.913L143.902 170.482V175.022L140.616 176.443V171.913Z" fill="#455A64"/>
<path d="M146.447 169.385L149.743 167.954V172.494L146.447 173.915V169.385Z" fill="#455A64"/>
<path d="M152.289 166.859L155.575 165.428V169.968L152.289 171.399V166.859Z" fill="#455A64"/>
<path d="M158.121 164.333L161.417 162.902V167.442L158.121 168.873V164.333Z" fill="#455A64"/>
<path d="M163.953 161.807L167.249 160.375V164.915L163.953 166.346V161.807Z" fill="#455A64"/>
<path d="M169.795 159.285L173.081 157.854V162.393L169.795 163.825V159.285Z" fill="#455A64"/>
<path d="M175.627 156.754L178.923 155.323V159.863L175.627 161.284V156.754Z" fill="#455A64"/>
<path d="M181.469 154.228L184.755 152.797V157.337L181.469 158.758V154.228Z" fill="#455A64"/>
<path d="M187.301 151.702L190.597 150.271V154.811L187.301 156.232V151.702Z" fill="#455A64"/>
<path d="M193.133 149.175L196.429 147.753V152.283L193.133 153.705V149.175Z" fill="#455A64"/>
<path d="M198.975 146.644L202.261 145.223V149.753L198.975 151.174V146.644Z" fill="#455A64"/>
<path d="M204.807 144.122L208.102 142.701V147.231L204.807 148.652V144.122Z" fill="#455A64"/>
<path d="M210.638 141.596L213.934 140.175V144.705L210.638 146.136V141.596Z" fill="#455A64"/>
<path d="M216.48 139.066L219.776 137.645V142.175L216.48 143.606V139.066Z" fill="#455A64"/>
<path d="M222.312 136.54L225.608 135.119V139.649L222.312 141.08V136.54Z" fill="#455A64"/>
<path d="M228.154 134.016L231.44 132.594V137.125L228.154 138.556V134.016Z" fill="#455A64"/>
<path d="M233.987 131.487L237.282 130.066V134.596L233.987 136.027V131.487Z" fill="#455A64"/>
<path d="M239.818 128.963L243.114 127.542V132.072L239.818 133.503V128.963Z" fill="#455A64"/>
<path d="M248.956 125.012V129.542L245.66 130.973V126.433L248.956 125.012Z" fill="#455A64"/>
<path d="M254.788 122.486V127.016L251.492 128.447V123.907L254.788 122.486Z" fill="#455A64"/>
<path d="M260.62 119.959V124.49L257.334 125.921V121.381L260.62 119.959Z" fill="#455A64"/>
<path d="M266.461 117.434V121.964L263.165 123.395V118.855L266.461 117.434Z" fill="#455A64"/>
<path d="M281.708 115.577C283.519 114.198 285.606 113.226 287.826 112.724V115.685C285.872 115.665 283.859 115.616 281.708 115.577Z" fill="#455A64"/>
<path d="M295 112.004V116.169C293.46 116.031 291.931 115.942 290.381 115.863V112.221C291.91 112.001 293.457 111.928 295 112.004Z" fill="#455A64"/>
<path d="M309.673 117.888C308.38 117.888 307.196 117.632 306.012 117.494C304.828 117.355 303.673 117.138 302.519 117.03C300.841 116.773 299.183 116.596 297.585 116.438V112.273C299.593 112.546 301.557 113.08 303.427 113.862C304.587 114.335 305.703 114.91 306.762 115.579C307.302 115.901 307.816 116.264 308.301 116.665C308.745 117.059 309.229 117.454 309.673 117.888Z" fill="#455A64"/>
<g opacity="0.1">
<path opacity="0.1" d="M204.807 154.812L166.124 173.425C166.124 173.425 104.647 140.462 60.5372 116.38C63.991 118.117 143.083 157.98 153.414 151.999C157.312 149.739 158.348 143.906 158.062 137.461L204.807 154.812Z" fill="black"/>
</g>
<path d="M98.2821 191.228L86.9735 195.353C86.9735 195.353 61.7115 183.629 46.6431 176.276L46.4853 176.207L46.278 176.108L41.9164 173.976C38.0186 172.002 35.5516 170.7 35.6502 170.522C36.0647 169.683 45.4392 169.476 49.1891 170.522H49.2976L49.5345 170.601C52.6527 171.657 68.3921 178.348 82.2171 184.29L82.5329 184.418L83.648 184.902L98.2821 191.228Z" fill="#E3EAED"/>
<path d="M204.807 154.809L166.124 173.423C166.124 173.423 104.647 140.459 60.5371 116.378L60.4385 116.318C36.8935 103.488 18.9141 93.4609 19.2102 93.076C19.9503 92.0891 31.7918 92.1976 36.4791 92.8391C36.9319 92.8828 37.3807 92.962 37.8211 93.076C39.7947 93.6188 109.374 119.388 158.082 137.488L204.807 154.809Z" fill="#E3EAED"/>
<path d="M210.451 152.291L198.965 157.818C169.578 145.501 47.3436 97.1701 37.1302 93.1138L36.8145 92.9855L36.5579 92.9065H36.4691C36.9219 92.9502 37.3707 93.0294 37.8111 93.1434C40.8504 93.9527 210.451 152.291 210.451 152.291Z" fill="#E3EAED"/>
<path opacity="0.5" d="M210.451 152.291L198.965 157.818C169.578 145.501 47.3436 97.1701 37.1302 93.1138L36.8145 92.9855L36.5579 92.9065H36.4691C36.9219 92.9502 37.3707 93.0294 37.8111 93.1434C40.8504 93.9527 210.451 152.291 210.451 152.291Z" fill="white"/>
<path d="M127.61 153.194C123.83 155.029 119.715 156.47 119.419 152.671C119.301 151.111 120.505 149.443 126.593 146.522C128.014 145.831 131.527 144.301 132.514 147.509C133.501 150.716 129.041 152.503 127.61 153.194Z" fill="#E3EAED"/>
<path opacity="0.1" d="M127.61 153.194C123.83 155.029 119.715 156.47 119.419 152.671C119.301 151.111 120.505 149.443 126.593 146.522C128.014 145.831 131.527 144.301 132.514 147.509C133.501 150.716 129.041 152.503 127.61 153.194Z" fill="black"/>
<path d="M94.8777 136.649C91.0982 138.485 86.9833 139.926 86.6873 136.126C86.5688 134.567 87.7727 132.909 93.8613 129.978C95.2823 129.287 98.7952 127.767 99.782 130.965C100.769 134.162 96.3085 135.959 94.8777 136.649Z" fill="#E3EAED"/>
<path opacity="0.1" d="M94.8777 136.649C91.0982 138.485 86.9833 139.926 86.6873 136.126C86.5688 134.567 87.7727 132.909 93.8613 129.978C95.2823 129.287 98.7952 127.767 99.782 130.965C100.769 134.162 96.3085 135.959 94.8777 136.649Z" fill="black"/>
<path d="M62.047 119.909C58.5242 121.626 54.6855 122.969 54.4092 119.426C54.3007 117.975 55.396 116.465 61.0898 113.701C62.422 113.06 65.6686 111.639 66.6159 114.58C67.5632 117.521 63.3693 119.278 62.047 119.909Z" fill="#E3EAED"/>
<path opacity="0.1" d="M62.047 119.909C58.5242 121.626 54.6855 122.969 54.4092 119.426C54.3007 117.975 55.396 116.465 61.0898 113.701C62.422 113.06 65.6686 111.639 66.6159 114.58C67.5632 117.521 63.3693 119.278 62.047 119.909Z" fill="black"/>
<path d="M176.446 149.444C173.486 154.743 166.716 156.648 162.444 158.326C151.085 162.866 142.856 165.422 138.76 155.099C138.274 153.907 137.968 152.65 137.853 151.368C137.182 143.591 145.244 139.702 149.329 137.551C154.263 134.955 157.756 133.268 160.361 132.172C164.605 130.386 166.499 130.198 168.443 130.09C170.742 130.011 175.923 130.593 177.63 140.107C178.368 143.261 177.948 146.574 176.446 149.444Z" fill="#E3EAED"/>
<path d="M168.493 152.539C172.962 152.539 176.584 147.842 176.584 142.048C176.584 136.253 172.962 131.556 168.493 131.556C164.024 131.556 160.401 136.253 160.401 142.048C160.401 147.842 164.024 152.539 168.493 152.539Z" fill="#455A64"/>
<path d="M175.637 142.047C175.637 147.169 172.439 151.314 168.492 151.314C164.545 151.314 161.338 147.169 161.338 142.047C161.338 136.924 164.545 132.779 168.492 132.779C172.439 132.779 175.637 136.924 175.637 142.047Z" fill="#F0F0F0"/>
<path d="M53.373 171.843L52.2283 171.468L53.373 171.843Z" fill="#E3EAED"/>
</g>
<path opacity="0.3" d="M89.4 228.118C89.4 228.118 22.5874 248.905 14.7753 237.921C11.1404 232.798 25.3494 223.473 25.3494 223.473C25.3494 223.473 16.0458 231.409 20.8154 233.796C29.7084 238.24 75.2687 222.396 75.2687 222.396L89.4 228.118Z" fill="white"/>
<path opacity="0.3" d="M49.6071 239.953L59.6596 237.572C61.333 237.166 63.0095 236.797 64.6775 236.376C66.3455 235.955 68.0166 235.57 69.6839 235.141C71.3513 234.712 73.0171 234.312 74.6751 233.868C76.3331 233.424 77.9865 232.973 79.6542 232.548C82.9628 231.621 86.2594 230.648 89.5519 229.627C86.4229 231.088 83.2088 232.361 79.9271 233.436C78.2856 233.978 76.6327 234.481 74.9732 234.953C73.3136 235.425 71.6427 235.858 69.9721 236.295C68.3015 236.732 66.6168 237.098 64.9274 237.457C64.0865 237.634 63.2417 237.812 62.3958 237.977C61.5499 238.143 60.7008 238.317 59.8531 238.463C56.4352 239.096 53.0244 239.63 49.6071 239.953Z" fill="white"/>
<path opacity="0.3" d="M22.6701 228.316C22.4412 228.72 22.2805 229.16 22.1944 229.616C22.1598 229.832 22.1522 230.05 22.1717 230.268C22.1979 230.467 22.2649 230.659 22.3684 230.832C22.5848 231.175 22.9071 231.437 23.2863 231.58C23.6795 231.747 24.091 231.866 24.5123 231.935C25.413 232.064 26.3238 232.11 27.2329 232.071C28.1522 232.063 29.0822 231.993 30.0065 231.904C30.9308 231.816 31.8624 231.718 32.7922 231.601C33.7219 231.484 34.651 231.359 35.5805 231.238C37.4473 230.995 39.3142 230.708 41.211 230.534C39.4372 231.188 37.623 231.728 35.7797 232.148C35.3198 232.264 34.8546 232.365 34.388 232.449C33.9214 232.534 33.4565 232.638 32.9849 232.711C32.0467 232.869 31.0971 232.988 30.1459 233.087C28.2381 233.226 26.2946 233.321 24.3483 232.838C23.8522 232.712 23.3756 232.52 22.9319 232.264C22.4513 231.998 22.0719 231.58 21.8521 231.076C21.6701 230.573 21.6843 230.02 21.8918 229.527C22.0671 229.075 22.3318 228.663 22.6701 228.316Z" fill="white"/>
<path d="M159.21 67.7558C156.723 66.8596 154.024 66.7348 151.466 67.3975C148.908 68.0603 146.609 69.4798 144.871 71.4704C143.751 69.1873 141.935 67.3193 139.684 66.1365C137.433 64.9537 134.865 64.5174 132.349 64.8907C134.563 63.8182 137.095 63.6037 139.457 64.2885C141.882 65.0007 143.964 66.5694 145.318 68.7027C150.108 63.7037 155.827 65.5682 159.21 67.7558Z" fill="#E0E0E0"/>
<path d="M178.244 61.3489C176.644 60.7704 174.906 60.689 173.259 61.1154C171.612 61.5417 170.132 62.4558 169.013 63.7379C168.293 62.2701 167.126 61.0684 165.68 60.3057C164.234 59.5431 162.583 59.2588 160.965 59.4938C162.394 58.8048 164.027 58.6701 165.549 59.116C167.104 59.5759 168.439 60.5849 169.307 61.9554C172.394 58.7396 176.057 59.938 178.244 61.3489Z" fill="#E0E0E0"/>
<path d="M77.6598 150.963C75.961 151.024 74.3198 151.595 72.9508 152.603C71.5817 153.611 70.5485 155.008 69.9859 156.612C68.7711 155.515 67.2387 154.832 65.6102 154.663C63.9818 154.494 62.3418 154.848 60.9277 155.673C61.9979 154.502 63.4642 153.771 65.0428 153.619C66.6577 153.468 68.2723 153.909 69.5867 154.859C71.2511 150.716 75.1134 150.463 77.6598 150.963Z" fill="#E0E0E0"/>
<path d="M162.466 43.3948C160.869 42.821 159.137 42.7398 157.494 43.1616C155.844 43.5917 154.359 44.5046 153.231 45.7834C152.51 44.3143 151.341 43.1123 149.893 42.3514C148.444 41.5905 146.791 41.3102 145.173 41.5509C146.601 40.8619 148.235 40.7273 149.757 41.1731C151.313 41.6364 152.649 42.65 153.513 44.025C156.607 40.7846 160.287 41.9847 162.466 43.3948Z" fill="#E0E0E0"/>
<g clip-path="url(#clip0_1386_5523)">
<path d="M139.75 30.5949C139.754 30.374 139.824 30.1592 139.95 29.978C140.077 29.7967 140.254 29.657 140.46 29.5766C140.666 29.4963 140.891 29.4789 141.107 29.5266C141.322 29.5743 141.519 29.685 141.672 29.8447C141.825 30.0044 141.926 30.2059 141.965 30.4235C142.003 30.6412 141.975 30.8653 141.886 31.0673C141.796 31.2694 141.649 31.4404 141.462 31.5585C141.276 31.6767 141.058 31.7368 140.837 31.7311C140.691 31.7279 140.547 31.6959 140.414 31.6371C140.28 31.5783 140.159 31.4937 140.058 31.3882C139.957 31.2826 139.878 31.1583 139.825 31.0222C139.772 30.8861 139.747 30.7409 139.75 30.5949Z" fill="#F0F0F0"/>
<path d="M98.8018 105.142L99.0365 105.554C99.2983 106.033 99.6927 106.428 100.173 106.69L100.584 106.924L100.173 107.159C99.6917 107.42 99.297 107.814 99.0365 108.295L98.8018 108.707L98.5671 108.295C98.3078 107.813 97.9127 107.418 97.431 107.159L97.0193 106.924L97.431 106.69C97.9119 106.429 98.3066 106.034 98.5671 105.554L98.8018 105.142Z" fill="#F0F0F0"/>
<path d="M8.86848 93.7576L8.94257 93.8934C9.02705 94.0457 9.15256 94.1712 9.30484 94.2557L9.44069 94.3298L9.30484 94.4039C9.15256 94.4883 9.02705 94.6139 8.94257 94.7661L8.86848 94.902L8.79437 94.7661C8.71119 94.6129 8.58536 94.4871 8.43211 94.4039L8.29626 94.3298L8.43211 94.2557C8.58536 94.1725 8.71119 94.0467 8.79437 93.8934L8.86848 93.7576Z" fill="#F0F0F0"/>
<path d="M143.834 60.5942L143.908 60.7301C143.991 60.8833 144.117 61.0092 144.27 61.0924L144.406 61.1665L144.27 61.2406C144.117 61.3237 143.991 61.4496 143.908 61.6028L143.834 61.7387L143.76 61.6028C143.677 61.4496 143.551 61.3237 143.398 61.2406L143.262 61.1665L143.398 61.0924C143.551 61.0092 143.677 60.8833 143.76 60.7301L143.834 60.5942Z" fill="#F0F0F0"/>
<path d="M21.8451 142.871L21.9244 143.172C22.0085 143.509 22.1874 143.815 22.44 144.054L22.6698 144.266L22.3657 144.341C22.0289 144.427 21.7239 144.607 21.4866 144.861L21.271 145.086L21.1957 144.786C21.11 144.448 20.9297 144.142 20.6761 143.903L20.4502 143.691L20.7504 143.616C21.0882 143.53 21.3946 143.35 21.6335 143.096L21.8451 142.871Z" fill="#F0F0F0"/>
<path d="M92.4128 5.56396L92.8244 6.30084C93.2767 7.12911 93.9566 7.81053 94.784 8.26447L95.5208 8.67614L94.784 9.0878C93.9572 9.54063 93.2773 10.2206 92.8244 11.0473L92.4128 11.7842L92.0011 11.0473C91.5472 10.22 90.8658 9.54001 90.0375 9.0878L89.3006 8.67614L90.0375 8.26447C90.8663 7.81115 91.5478 7.12968 92.0011 6.30084L92.4128 5.56396Z" fill="#F0F0F0"/>
</g>
<path opacity="0.3" d="M152.719 115.069C152.719 115.069 233.488 98.1467 235.234 82.3709C236.048 75.0048 216.047 73.5447 216.047 73.5447C216.047 73.5447 229.506 75.9829 226.642 81.58C220.469 93.654 152.719 115.069 152.719 115.069Z" fill="white"/>
<path opacity="0.3" d="M200.533 104.432C196.789 106.065 192.984 107.474 189.133 108.784C188.173 109.121 187.205 109.434 186.236 109.743C185.267 110.052 184.299 110.361 183.325 110.679C181.378 111.278 179.417 111.816 177.461 112.373C175.505 112.93 173.521 113.408 171.537 113.862C169.552 114.315 167.559 114.746 165.565 115.139C161.564 115.916 157.519 116.449 153.454 116.735C157.441 115.897 161.409 115.013 165.331 114.067C167.292 113.548 169.267 113.131 171.218 112.57C173.17 112.008 175.135 111.545 177.092 111.021C179.048 110.497 181.004 109.959 182.951 109.406C184.898 108.854 186.854 108.302 188.805 107.764L200.533 104.432Z" fill="white"/>
<path opacity="0.3" d="M221.597 76.9941C222.16 77.1839 222.651 77.5436 223.001 78.0237C223.186 78.2799 223.321 78.5689 223.399 78.8754C223.467 79.1825 223.487 79.4981 223.46 79.8114C223.387 80.4319 223.188 81.0309 222.875 81.571C222.584 82.099 222.241 82.5961 221.85 83.0545C220.276 84.7872 218.46 86.2831 216.458 87.4957C215.476 88.1088 214.484 88.6891 213.468 89.232C212.963 89.5034 212.448 89.7608 211.933 90.0135C211.418 90.2662 210.903 90.5283 210.375 90.7529C208.291 91.714 206.148 92.5393 203.959 93.2239C205.91 92.0071 207.908 90.9167 209.874 89.7795C210.857 89.2039 211.853 88.6657 212.818 88.0714C213.782 87.477 214.764 86.9248 215.705 86.3117C216.646 85.6987 217.577 85.095 218.513 84.4398C219.412 83.7962 220.265 83.0893 221.063 82.3245C221.446 81.9437 221.798 81.5337 222.116 81.0984C222.435 80.6799 222.669 80.2029 222.804 79.6944C222.866 79.4482 222.893 79.1946 222.884 78.941C222.859 78.6839 222.793 78.4325 222.687 78.1969C222.44 77.704 222.063 77.2881 221.597 76.9941Z" fill="white"/>
<defs>
<filter id="filter0_d_1386_5523" x="-5.79344" y="75.3459" width="352.071" height="191.857" filterUnits="userSpaceOnUse" color-interpolation-filters="sRGB">
<feFlood flood-opacity="0" result="BackgroundImageFix"/>
<feColorMatrix in="SourceAlpha" type="matrix" values="0 0 0 0 0 0 0 0 0 0 0 0 0 0 0 0 0 0 127 0" result="hardAlpha"/>
<feOffset dy="8"/>
<feGaussianBlur stdDeviation="12.5"/>
<feComposite in2="hardAlpha" operator="out"/>
<feColorMatrix type="matrix" values="0 0 0 0 0 0 0 0 0 0 0 0 0 0 0 0 0 0 0.04 0"/>
<feBlend mode="normal" in2="BackgroundImageFix" result="effect1_dropShadow_1386_5523"/>
<feBlend mode="normal" in="SourceGraphic" in2="effect1_dropShadow_1386_5523" result="shape"/>
</filter>
<clipPath id="clip0_1386_5523">
<rect width="205.831" height="205.831" fill="white" transform="translate(-52 5.56299)"/>
</clipPath>
</defs>
</svg>
