<svg width="135" height="134" viewBox="0 0 135 134" fill="none" xmlns="http://www.w3.org/2000/svg">
<path d="M0.5 14.5652C0.5 6.52107 7.02107 0 15.0652 0H119.935C127.979 0 134.5 6.52107 134.5 14.5652V119.435C134.5 127.479 127.979 134 119.935 134H15.0652C7.02107 134 0.5 127.479 0.5 119.435V14.5652Z" fill="#5B9CEC"/>
<path d="M61.6739 37.8695C61.6739 50.7402 51.2402 61.1739 38.3695 61.1739C25.4989 61.1739 15.0652 50.7402 15.0652 37.8695C15.0652 24.9989 25.4989 14.5652 38.3695 14.5652C51.2402 14.5652 61.6739 24.9989 61.6739 37.8695Z" fill="#E30D05"/>
<path d="M35.4747 48.0653H37.6594L42.5621 39.387H48.201C48.201 39.387 51.4782 39.387 51.4782 37.8696C51.4782 36.3511 48.201 36.3511 48.201 36.3511H42.5621L37.6594 27.674H35.4747L38.1925 36.3511H34.2741L31.8152 34.1807H29.6304L31.3793 37.8685L29.6304 41.5574H31.8152L34.2741 39.387H38.1925L35.4747 48.0653Z" fill="white"/>
<path d="M61.6739 96.1305C61.6739 109.001 51.2402 119.435 38.3695 119.435C25.4989 119.435 15.0652 109.001 15.0652 96.1305C15.0652 83.2598 25.4989 72.8261 38.3695 72.8261C51.2402 72.8261 61.6739 83.2598 61.6739 96.1305Z" fill="#77B0F5"/>
<path d="M23.739 91.1253L26.3754 93.8258C32.9267 87.115 43.5513 87.115 50.1026 93.8258L52.739 91.1253C44.7376 82.9292 31.7536 82.9292 23.739 91.1253ZM34.2845 101.927L38.239 105.978L42.1936 101.927C41.6747 101.395 41.0584 100.972 40.3798 100.683C39.7012 100.395 38.9737 100.246 38.239 100.246C37.5043 100.246 36.7768 100.395 36.0982 100.683C35.4196 100.972 34.8033 101.395 34.2845 101.927ZM29.0117 96.5264L31.6481 99.2269C33.3966 97.4373 35.7673 96.432 38.239 96.432C40.7108 96.432 43.0814 97.4373 44.8299 99.2269L47.4663 96.5264C42.3781 91.3143 34.1131 91.3143 29.0117 96.5264Z" fill="white"/>
<path fill-rule="evenodd" clip-rule="evenodd" d="M26.0488 84.7882C27.1864 83.6506 29.0309 83.6506 30.1685 84.7882L47.8966 102.516C49.0343 103.654 49.0342 105.498 47.8966 106.636C46.759 107.774 44.9146 107.774 43.777 106.636L26.0488 88.9078C24.9112 87.7702 24.9112 85.9258 26.0488 84.7882Z" fill="#77B0F5"/>
<path fill-rule="evenodd" clip-rule="evenodd" d="M27.1439 85.8153C27.7127 85.2465 28.6349 85.2465 29.2038 85.8153L47.2581 103.87C47.8269 104.439 47.8269 105.361 47.2581 105.93C46.6893 106.498 45.767 106.498 45.1982 105.93L27.1439 87.8751C26.5751 87.3063 26.5751 86.3841 27.1439 85.8153Z" fill="white" fill-opacity="0.8"/>
<path d="M117.022 96.1305C117.022 109.001 106.588 119.435 93.7174 119.435C80.8468 119.435 70.4131 109.001 70.4131 96.1305C70.4131 83.2598 80.8468 72.8261 93.7174 72.8261C106.588 72.8261 117.022 83.2598 117.022 96.1305Z" fill="#77B0F5"/>
<path fill-rule="evenodd" clip-rule="evenodd" d="M93.9442 83.7976C94.2268 83.6902 94.5464 83.7685 94.7473 83.9945L100.088 90.0027C100.353 90.3007 100.329 90.7564 100.034 91.0249L95.2274 95.4023L100.034 99.7796C100.329 100.048 100.353 100.504 100.088 100.802L94.7473 106.81C94.5464 107.036 94.2268 107.114 93.9442 107.007C93.6615 106.899 93.4747 106.629 93.4747 106.326V96.9985L89.8383 100.31C89.5409 100.581 89.0803 100.56 88.8095 100.262C88.5386 99.9648 88.5602 99.5042 88.8575 99.2334L93.0643 95.4023L88.8575 91.5711C88.5602 91.3003 88.5386 90.8397 88.8095 90.5423C89.0803 90.245 89.5409 90.2234 89.8383 90.4943L93.4747 93.806V84.4784C93.4747 84.176 93.6615 83.9051 93.9442 83.7976ZM94.9312 97.1025L98.5212 100.372L94.9312 104.411V97.1025ZM94.9312 93.702V86.3938L98.5212 90.4326L94.9312 93.702Z" fill="#EDEDED"/>
<path fill-rule="evenodd" clip-rule="evenodd" d="M84.125 84.5371C85.2626 83.3995 87.107 83.3995 88.2446 84.5371L105.311 101.603C106.448 102.741 106.448 104.585 105.311 105.723C104.173 106.86 102.329 106.86 101.191 105.723L84.125 88.6567C82.9874 87.5191 82.9874 85.6747 84.125 84.5371Z" fill="#77B0F5"/>
<path fill-rule="evenodd" clip-rule="evenodd" d="M84.6105 85.0374C85.1793 84.4686 86.1016 84.4687 86.6705 85.0376L104.727 103.095C105.296 103.664 105.296 104.586 104.728 105.155C104.159 105.724 103.236 105.723 102.668 105.155L84.6107 87.0975C84.0417 86.5285 84.0417 85.6062 84.6105 85.0374Z" fill="white" fill-opacity="0.8"/>
<path d="M118.478 37.8695C118.478 50.7402 108.045 61.1739 95.174 61.1739C82.3033 61.1739 71.8696 50.7402 71.8696 37.8695C71.8696 24.9989 82.3033 14.5652 95.174 14.5652C108.045 14.5652 118.478 24.9989 118.478 37.8695Z" fill="#77B0F5"/>
<path d="M105.266 35.4672C105.271 37.5291 104.563 39.511 103.296 40.988L104.398 42.2393C105.248 41.2485 105.901 40.0634 106.316 38.7631C106.73 37.4628 106.895 36.0772 106.8 34.6988C106.705 33.3204 106.352 31.9808 105.765 30.7694C105.177 29.5581 104.369 28.5028 103.394 27.6741L102.456 29.091C103.332 29.8299 104.042 30.7919 104.53 31.8994C105.018 33.0069 105.27 34.229 105.266 35.4672Z" fill="#F6F6F6"/>
<path d="M101.78 35.3728C101.779 36.2233 101.5 37.0528 100.983 37.7499L102.245 38.9384C103.207 37.7755 103.664 36.3118 103.523 34.8436C103.383 33.3754 102.654 32.0125 101.486 31.0307L100.306 32.2708C100.77 32.6612 101.141 33.1392 101.395 33.6738C101.649 34.2083 101.78 34.7872 101.78 35.3728ZM106.826 48.345L83.3156 26.2175L82.0652 27.3944L85.346 30.4822C84.0345 32.4259 83.5509 34.764 83.992 37.0288C84.433 39.2936 85.7661 41.3182 87.7248 42.6979L88.786 41.3662C87.2384 40.2773 86.1663 38.6942 85.771 36.9141C85.3756 35.134 85.6843 33.2793 86.6389 31.6982L88.5817 33.5268C88.1944 34.6049 88.1525 35.7664 88.4613 36.8667C88.7701 37.967 89.416 38.9575 90.3185 39.7149L91.4982 38.4748C91.0344 38.0844 90.6634 37.6064 90.4094 37.0719C90.1554 36.5373 90.024 35.9584 90.024 35.3728C90.027 35.2208 90.0388 35.0691 90.0594 34.9184L93.5613 38.2143V43.8681V49.5219H95.3299V44.7004V39.8789L105.576 49.5219L106.826 48.345Z" fill="#F6F6F6"/>
<path fill-rule="evenodd" clip-rule="evenodd" d="M80.6774 24.5631C81.6354 23.5317 83.2482 23.4722 84.2796 24.4303L106.971 45.5086C108.003 46.4666 108.062 48.0794 107.104 49.1108C106.146 50.1422 104.533 50.2017 103.502 49.2436L80.8102 28.1653C79.7788 27.2073 79.7193 25.5945 80.6774 24.5631Z" fill="#77B0F5"/>
<path fill-rule="evenodd" clip-rule="evenodd" d="M85.7526 28.2011C86.3214 27.6323 87.2963 27.6849 87.9301 28.3187L105.752 46.1407C106.386 46.7745 106.439 47.7494 105.87 48.3182C105.301 48.8871 104.326 48.8344 103.692 48.2006L85.8702 30.3786C85.2364 29.7448 85.1837 28.7699 85.7526 28.2011Z" fill="white" fill-opacity="0.8"/>
</svg>
