<svg width="24.000000" height="24.000000" viewBox="0 0 24 24" fill="none" xmlns="http://www.w3.org/2000/svg" xmlns:xlink="http://www.w3.org/1999/xlink">
	<desc>
			Created with Pixso.
	</desc>
	<defs/>
	<rect id="icon/general/24x24/outline/calendar" width="24.000000" height="24.000000" fill="#FFFFFF" fill-opacity="0"/>
	<mask id="mask_13_690" fill="white">
		<path id="🎨 Icon Сolor" d="M17 4L18 4C19.6541 4 21 5.34601 21 7L21 19C21 20.654 19.6541 22 18 22L6 22C4.34595 22 3 20.654 3 19L3 7C3 5.34601 4.34595 4 6 4L7 4L7 3C7 2.45001 7.44995 2 8 2C8.55005 2 9 2.45001 9 3L9 4L15 4L15 3C15 2.45001 15.45 2 16 2C16.55 2 17 2.45001 17 3L17 4ZM6 6L7 6L7 7C7 7.54999 7.44995 8 8 8C8.55005 8 9 7.54999 9 7L9 6L15 6L15 7C15 7.54999 15.45 8 16 8C16.55 8 17 7.54999 17 7L17 6L18 6C18.551 6 19 6.44897 19 7L19 11L5 11L5 7C5 6.44897 5.44897 6 6 6ZM5 19C5 19.551 5.44897 20 6 20L18 20C18.551 20 19 19.551 19 19L19 13L5 13L5 19ZM7 16C7 15.45 7.44995 15 8 15C8.55005 15 9 15.45 9 16C9 16.55 8.55005 17 8 17C7.44995 17 7 16.55 7 16ZM12 15L16 15C16.55 15 17 15.45 17 16C17 16.55 16.55 17 16 17L12 17C11.45 17 11 16.55 11 16C11 15.45 11.45 15 12 15Z" clip-rule="evenodd" fill="" fill-opacity="1.000000" fill-rule="evenodd"/>
	</mask>
	<path id="🎨 Icon Сolor" d="M17 4L18 4C19.6541 4 21 5.34601 21 7L21 19C21 20.654 19.6541 22 18 22L6 22C4.34595 22 3 20.654 3 19L3 7C3 5.34601 4.34595 4 6 4L7 4L7 3C7 2.45001 7.44995 2 8 2C8.55005 2 9 2.45001 9 3L9 4L15 4L15 3C15 2.45001 15.45 2 16 2C16.55 2 17 2.45001 17 3L17 4ZM6 6L7 6L7 7C7 7.54999 7.44995 8 8 8C8.55005 8 9 7.54999 9 7L9 6L15 6L15 7C15 7.54999 15.45 8 16 8C16.55 8 17 7.54999 17 7L17 6L18 6C18.551 6 19 6.44897 19 7L19 11L5 11L5 7C5 6.44897 5.44897 6 6 6ZM5 19C5 19.551 5.44897 20 6 20L18 20C18.551 20 19 19.551 19 19L19 13L5 13L5 19ZM7 16C7 15.45 7.44995 15 8 15C8.55005 15 9 15.45 9 16C9 16.55 8.55005 17 8 17C7.44995 17 7 16.55 7 16ZM12 15L16 15C16.55 15 17 15.45 17 16C17 16.55 16.55 17 16 17L12 17C11.45 17 11 16.55 11 16C11 15.45 11.45 15 12 15Z" clip-rule="evenodd" fill="#000000" fill-opacity="1.000000" fill-rule="evenodd" mask="url(#mask_13_690)"/>
	<path id="🎨 Icon Сolor" d="" fill="#979797" fill-opacity="0.000000" fill-rule="nonzero"/>
</svg>
