<svg width="30" height="30" viewBox="0 0 30 30" fill="none" xmlns="http://www.w3.org/2000/svg">
<path fill-rule="evenodd" clip-rule="evenodd" d="M25.0165 24.297L19.9286 19.2091C21.2702 17.6562 22.0827 15.6257 22.0827 13.4037C22.0827 8.52234 18.1613 4.56519 13.324 4.56519C8.48662 4.56519 4.56519 8.52234 4.56519 13.4037C4.56519 18.2851 8.48662 22.2423 13.324 22.2423C15.1521 22.2423 16.8495 21.6771 18.2538 20.7104L23.4284 25.885C23.867 26.3235 24.5779 26.3235 25.0165 25.885C25.455 25.4465 25.455 24.7355 25.0165 24.297ZM19.8369 13.4037C19.8369 17.0335 16.9209 19.976 13.324 19.976C9.72696 19.976 6.81102 17.0335 6.81102 13.4037C6.81102 9.77398 9.72696 6.83147 13.324 6.83147C16.9209 6.83147 19.8369 9.77398 19.8369 13.4037Z" fill="white"/>
<path d="M19.9286 19.2091L19.8151 19.111L19.724 19.2166L19.8226 19.3152L19.9286 19.2091ZM25.0165 24.297L24.9104 24.403L25.0165 24.297ZM18.2538 20.7104L18.3599 20.6043L18.2716 20.516L18.1688 20.5868L18.2538 20.7104ZM23.4284 25.885L23.5345 25.7789L23.4284 25.885ZM25.0165 25.885L24.9104 25.7789L25.0165 25.885ZM19.8226 19.3152L24.9104 24.403L25.1225 24.1909L20.0347 19.103L19.8226 19.3152ZM21.9327 13.4037C21.9327 15.5885 21.134 17.5845 19.8151 19.111L20.0421 19.3072C21.4065 17.7279 22.2327 15.6629 22.2327 13.4037H21.9327ZM13.324 4.71519C18.0772 4.71519 21.9327 8.6039 21.9327 13.4037H22.2327C22.2327 8.44079 18.2454 4.41519 13.324 4.41519V4.71519ZM4.71519 13.4037C4.71519 8.6039 8.57074 4.71519 13.324 4.71519V4.41519C8.4025 4.41519 4.41519 8.44079 4.41519 13.4037H4.71519ZM13.324 22.0923C8.57074 22.0923 4.71519 18.2036 4.71519 13.4037H4.41519C4.41519 18.3667 8.4025 22.3923 13.324 22.3923V22.0923ZM18.1688 20.5868C16.7886 21.5369 15.1207 22.0923 13.324 22.0923V22.3923C15.1836 22.3923 16.9104 21.8173 18.3389 20.8339L18.1688 20.5868ZM23.5345 25.7789L18.3599 20.6043L18.1477 20.8164L23.3224 25.9911L23.5345 25.7789ZM24.9104 25.7789C24.5305 26.1589 23.9144 26.1589 23.5345 25.7789L23.3224 25.9911C23.8195 26.4882 24.6254 26.4882 25.1225 25.9911L24.9104 25.7789ZM24.9104 24.403C25.2904 24.783 25.2904 25.399 24.9104 25.7789L25.1225 25.9911C25.6196 25.494 25.6196 24.688 25.1225 24.1909L24.9104 24.403ZM13.324 20.126C17.0051 20.126 19.9869 17.1151 19.9869 13.4037H19.6869C19.6869 16.9519 16.8368 19.826 13.324 19.826V20.126ZM6.66102 13.4037C6.66102 17.1151 9.64284 20.126 13.324 20.126V19.826C9.81109 19.826 6.96102 16.9519 6.96102 13.4037H6.66102ZM13.324 6.68147C9.64284 6.68147 6.66102 9.69242 6.66102 13.4037H6.96102C6.96102 9.85553 9.81109 6.98147 13.324 6.98147V6.68147ZM19.9869 13.4037C19.9869 9.69242 17.0051 6.68147 13.324 6.68147V6.98147C16.8368 6.98147 19.6869 9.85553 19.6869 13.4037H19.9869Z" fill="white"/>
</svg>
