<svg width="24" height="24" viewBox="0 0 24 24" fill="none" xmlns="http://www.w3.org/2000/svg">
<path d="M10.5257 3.27344C11.2423 2.24972 12.7584 2.24972 13.475 3.27344L14.1616 4.2544C14.5629 4.82766 15.26 5.11641 15.9491 4.9948L17.1283 4.78669C18.3589 4.56951 19.4309 5.64156 19.2137 6.87213L19.0056 8.05132C18.884 8.74041 19.1728 9.43753 19.746 9.8388L20.727 10.5254C21.7507 11.242 21.7507 12.7581 20.727 13.4747L19.746 14.1614C19.1728 14.5626 18.884 15.2598 19.0056 15.9488L19.2137 17.128C19.4309 18.3586 18.3589 19.4307 17.1283 19.2135L15.9491 19.0054C15.26 18.8838 14.5629 19.1725 14.1616 19.7458L13.475 20.7267C12.7584 21.7504 11.2423 21.7504 10.5257 20.7267L9.83904 19.7458C9.43777 19.1725 8.74065 18.8838 8.05157 19.0054L6.87238 19.2135C5.6418 19.4307 4.56975 18.3586 4.78693 17.128L4.99504 15.9488C5.11666 15.2598 4.8279 14.5626 4.25465 14.1614L3.27368 13.4747C2.24996 12.7581 2.24996 11.242 3.27368 10.5254L4.25465 9.83879C4.8279 9.43753 5.11666 8.74041 4.99504 8.05132L4.78693 6.87214C4.56975 5.64156 5.6418 4.56951 6.87238 4.78669L8.05157 4.9948C8.74065 5.11641 9.43778 4.82766 9.83904 4.2544L10.5257 3.27344Z" stroke="#5B9CEC" stroke-width="2"/>
<circle cx="12" cy="12" r="3.25" stroke="#5B9CEC" stroke-width="2"/>
</svg>
