<svg width="27" height="29" viewBox="0 0 27 29" fill="none" xmlns="http://www.w3.org/2000/svg">
<path d="M17.5783 4.83332C17.5783 6.16799 16.5709 7.24999 15.3283 7.24999C14.0856 7.24999 13.0783 6.16799 13.0783 4.83332C13.0783 3.49863 14.0856 2.41666 15.3283 2.41666C16.5709 2.41666 17.5783 3.49863 17.5783 4.83332ZM14.4522 17.1564L17.3732 20.2521C17.4852 20.3708 17.5728 20.5134 17.6303 20.6708L19.188 24.9335C19.415 25.5547 19.1301 26.256 18.5518 26.4998C17.9734 26.7436 17.3206 26.4377 17.0935 25.8165L15.6231 21.7923L10.6006 16.4695C10.3549 16.2091 10.2341 15.8419 10.2729 15.4735L10.6752 11.6555C9.7055 12.6903 8.95749 14.1461 8.38425 16.0751C8.19536 16.7108 7.56238 17.0617 6.97046 16.8587C6.37854 16.6558 6.0519 15.9759 6.24084 15.3402C7.29283 11.8001 9.03945 9.15034 11.9698 7.93518L11.9832 7.92974C12.7294 7.63188 13.5059 7.65587 14.1974 8.03988C14.8621 8.4089 15.3351 9.04624 15.6449 9.76054C15.7753 10.0613 15.8959 10.3424 16.0092 10.6062C16.2835 11.2453 16.5147 11.7837 16.7364 12.2569C17.0479 12.9217 17.2982 13.3618 17.5456 13.6714C17.7749 13.9583 18.0031 14.1346 18.2939 14.2565C18.6065 14.3877 19.0447 14.478 19.7213 14.4998C20.3423 14.5198 20.8307 15.0768 20.8121 15.7438C20.7934 16.4108 20.2749 16.9354 19.6538 16.9154C18.8411 16.8892 18.1193 16.7777 17.4754 16.5076C16.8097 16.2284 16.2847 15.804 15.8383 15.2455C15.5568 14.8932 15.3099 14.4915 15.0785 14.0542L14.4522 17.1564Z" fill="#E40E05"/>
<path d="M10.2728 18.2578L12.1375 20.1788L11.2795 23.2888C11.213 23.5294 11.0785 23.7419 10.8945 23.8966L8.00633 26.3268C7.51724 26.7383 6.81012 26.6461 6.42695 26.1208C6.04377 25.5954 6.12966 24.8359 6.61881 24.4244L9.22426 22.2322L10.0093 19.3865L10.2728 18.2578Z" fill="#E40E05"/>
</svg>
